<svg width="512" height="512" viewBox="0 0 512 512" fill="none" xmlns="http://www.w3.org/2000/svg">
<rect width="512" height="512" rx="96" fill="#18181B"/>
<path d="M241.9 357C225.5 357 212.2 351.3 202 339.9C192 328.5 187 313.2 187 294V249.3C187 229.9 192 214.5 202 203.1C212 191.7 225.3 186 241.9 186C255.5 186 266.3 189.9 274.3 197.7C282.3 205.3 286.3 215.8 286.3 229.2L277.9 220.5H286.6L285.4 181.2V135H322.9V354H286.3V322.5H277.9L286.3 313.8C286.3 327.2 282.3 337.8 274.3 345.6C266.3 353.2 255.5 357 241.9 357ZM255.1 324.6C264.7 324.6 272.1 321.8 277.3 316.2C282.7 310.4 285.4 302.4 285.4 292.2V250.8C285.4 240.6 282.7 232.7 277.3 227.1C272.1 221.3 264.7 218.4 255.1 218.4C245.5 218.4 238 221.2 232.6 226.8C227.2 232.4 224.5 240.4 224.5 250.8V292.2C224.5 302.6 227.2 310.6 232.6 316.2C238 321.8 245.5 324.6 255.1 324.6Z" fill="#E1AD01"/>
<path d="M198.848 449V433.6H201.06V435.448H201.564L201.172 436.12C201.172 435.261 201.396 434.58 201.844 434.076C202.311 433.572 202.936 433.32 203.72 433.32C204.579 433.32 205.241 433.637 205.708 434.272C206.175 434.907 206.408 435.803 206.408 436.96L205.652 435.448H206.828L206.296 436.12C206.296 435.261 206.529 434.58 206.996 434.076C207.481 433.572 208.116 433.32 208.9 433.32C209.871 433.32 210.617 433.684 211.14 434.412C211.681 435.14 211.952 436.101 211.952 437.296V449H209.628V437.268C209.628 436.633 209.488 436.139 209.208 435.784C208.947 435.429 208.555 435.252 208.032 435.252C207.528 435.252 207.127 435.429 206.828 435.784C206.548 436.12 206.408 436.605 206.408 437.24V449H204.392V437.268C204.392 436.615 204.243 436.12 203.944 435.784C203.664 435.429 203.263 435.252 202.74 435.252C202.217 435.252 201.825 435.429 201.564 435.784C201.303 436.12 201.172 436.605 201.172 437.24V449H198.848ZM222.161 449.28C220.388 449.28 218.969 448.757 217.905 447.712C216.841 446.648 216.309 445.211 216.309 443.4V433.6H218.829V443.4C218.829 444.557 219.128 445.463 219.725 446.116C220.322 446.751 221.134 447.068 222.161 447.068C223.206 447.068 224.028 446.751 224.625 446.116C225.241 445.463 225.549 444.557 225.549 443.4V433.6H228.069V443.4C228.069 445.211 227.528 446.648 226.445 447.712C225.362 448.757 223.934 449.28 222.161 449.28ZM238.502 449.224C237.457 449.224 236.542 449.065 235.758 448.748C234.993 448.412 234.377 447.945 233.91 447.348C233.462 446.751 233.191 446.041 233.098 445.22H235.618C235.73 445.761 236.029 446.191 236.514 446.508C237.018 446.825 237.681 446.984 238.502 446.984H239.678C240.667 446.984 241.405 446.788 241.89 446.396C242.375 445.985 242.618 445.444 242.618 444.772C242.618 444.119 242.394 443.605 241.946 443.232C241.517 442.84 240.873 442.579 240.014 442.448L237.942 442.112C236.43 441.851 235.301 441.384 234.554 440.712C233.826 440.021 233.462 439.023 233.462 437.716C233.462 436.335 233.901 435.271 234.778 434.524C235.655 433.759 236.971 433.376 238.726 433.376H239.79C241.265 433.376 242.45 433.721 243.346 434.412C244.242 435.103 244.783 436.036 244.97 437.212H242.45C242.338 436.727 242.058 436.344 241.61 436.064C241.162 435.765 240.555 435.616 239.79 435.616H238.726C237.774 435.616 237.074 435.793 236.626 436.148C236.197 436.503 235.982 437.035 235.982 437.744C235.982 438.379 236.169 438.845 236.542 439.144C236.915 439.443 237.503 439.657 238.306 439.788L240.378 440.124C242.039 440.385 243.243 440.871 243.99 441.58C244.755 442.289 245.138 443.316 245.138 444.66C245.138 446.079 244.681 447.199 243.766 448.02C242.87 448.823 241.507 449.224 239.678 449.224H238.502ZM257.447 449C256.122 449 255.086 448.645 254.339 447.936C253.611 447.227 253.247 446.228 253.247 444.94V435.896H248.907V433.6H253.247V429.26H255.767V433.6H261.927V435.896H255.767V444.94C255.767 446.116 256.327 446.704 257.447 446.704H261.647V449H257.447ZM272.556 449.28C271.343 449.28 270.279 449.037 269.364 448.552C268.468 448.067 267.768 447.385 267.264 446.508C266.779 445.612 266.536 444.576 266.536 443.4V439.2C266.536 438.005 266.779 436.969 267.264 436.092C267.768 435.215 268.468 434.533 269.364 434.048C270.279 433.563 271.343 433.32 272.556 433.32C273.77 433.32 274.824 433.563 275.72 434.048C276.635 434.533 277.335 435.215 277.82 436.092C278.324 436.969 278.576 438.005 278.576 439.2V441.916H269V443.4C269 444.613 269.308 445.547 269.924 446.2C270.54 446.835 271.418 447.152 272.556 447.152C273.527 447.152 274.311 446.984 274.908 446.648C275.506 446.293 275.87 445.771 276 445.08H278.52C278.352 446.368 277.718 447.395 276.616 448.16C275.534 448.907 274.18 449.28 272.556 449.28ZM276.112 440.236V439.2C276.112 437.987 275.804 437.053 275.188 436.4C274.591 435.747 273.714 435.42 272.556 435.42C271.418 435.42 270.54 435.747 269.924 436.4C269.308 437.053 269 437.987 269 439.2V440.012H276.308L276.112 440.236ZM284.053 449V433.6H286.517V436.54H287.105L286.293 438.36C286.293 436.699 286.648 435.448 287.357 434.608C288.085 433.749 289.159 433.32 290.577 433.32C292.201 433.32 293.489 433.833 294.441 434.86C295.412 435.868 295.897 437.24 295.897 438.976V439.9H293.377V439.2C293.377 437.987 293.079 437.063 292.481 436.428C291.903 435.775 291.072 435.448 289.989 435.448C288.925 435.448 288.085 435.775 287.469 436.428C286.872 437.081 286.573 438.005 286.573 439.2V449H284.053ZM305.238 449.28C303.708 449.28 302.466 448.767 301.514 447.74C300.581 446.713 300.114 445.323 300.114 443.568V439.06C300.114 437.287 300.581 435.887 301.514 434.86C302.448 433.833 303.689 433.32 305.238 433.32C306.508 433.32 307.525 433.665 308.29 434.356C309.056 435.047 309.438 435.971 309.438 437.128L308.934 436.54H309.494L309.438 433.04V428.56H311.958V449H309.438V446.06H308.934L309.438 445.472C309.438 446.648 309.056 447.581 308.29 448.272C307.525 448.944 306.508 449.28 305.238 449.28ZM306.078 447.096C307.124 447.096 307.945 446.769 308.542 446.116C309.14 445.463 309.438 444.557 309.438 443.4V439.2C309.438 438.043 309.14 437.137 308.542 436.484C307.945 435.831 307.124 435.504 306.078 435.504C305.014 435.504 304.174 435.821 303.558 436.456C302.942 437.091 302.634 438.005 302.634 439.2V443.4C302.634 444.595 302.942 445.509 303.558 446.144C304.174 446.779 305.014 447.096 306.078 447.096Z" fill="#F4F4F5"/>
</svg>
